<?xml version="1.0" encoding="utf-8"?>
<!-- Generator: Adobe Illustrator 21.1.0, SVG Export Plug-In . SVG Version: 6.00 Build 0)  -->
<svg version="1.1" id="Layer_1" xmlns="http://www.w3.org/2000/svg" xmlns:xlink="http://www.w3.org/1999/xlink" x="0px" y="0px"
	 viewBox="0 0 30 30" style="enable-background:new 0 0 30 30;" xml:space="preserve">
<style type="text/css">
	.st0{fill:#556C9B;}
	.st1{fill:#20589B;}
	.st2{fill:#47A1D7;}
	.st3{fill:#DA2805;}
	.st4{fill:#864D2D;}
	.st5{fill:#3E87C5;}
	.st6{fill:#E43934;}
	.st7{fill:#2493CD;}
	.st8{fill:#DD2221;}
	.st9{fill:#E85750;}
	.st10{fill:#13B6D7;}
	.st11{fill:#366298;}
	.st12{fill:#F1921F;}
	.st13{fill:#2D5BA3;}
	.st14{fill:#211D21;}
	.st15{fill:#E9594A;}
	.st16{fill:#7C509C;}
	.st17{fill:#35A843;}
	.st18{fill:#1EA0D3;}
	.st19{fill:#3BBDE2;}
	.st20{fill:#38A2C3;}
	.st21{fill:#29AC86;}
	.st22{fill:#E64988;}
	.st23{fill:#2E67AF;}
	.st24{fill:#5E9343;}
	.st25{fill:#EA631B;}
	.st26{fill:#E75599;}
	.st27{fill:#2B4556;}
	.st28{fill:#FFFFFF;}
	.st29{fill-rule:evenodd;clip-rule:evenodd;fill:#FFFFFF;}
</style>
<rect x="0" class="st12" width="30" height="30"/>
<g id="ok_2_">
	<path class="st28" d="M14.9,15.5c2.8,0,5-2.3,5-5c0-2.8-2.3-5-5-5c-2.8,0-5,2.3-5,5C9.9,13.2,12.2,15.5,14.9,15.5z M14.9,8.4
		c1.1,0,2.1,0.9,2.1,2.1c0,1.1-0.9,2.1-2.1,2.1c-1.1,0-2.1-0.9-2.1-2.1C12.8,9.3,13.8,8.4,14.9,8.4z"/>
	<path class="st28" d="M17,19.6c1-0.2,2-0.6,2.9-1.2c0.7-0.4,0.9-1.3,0.5-2c-0.4-0.7-1.3-0.9-2-0.5c-2.1,1.3-4.7,1.3-6.8,0
		c-0.7-0.4-1.6-0.2-2,0.5c-0.4,0.7-0.2,1.6,0.5,2c0.9,0.6,1.9,1,2.9,1.2l-2.8,2.8c-0.6,0.6-0.6,1.5,0,2.1c0.3,0.3,0.7,0.4,1,0.4
		c0.4,0,0.8-0.1,1-0.4l2.8-2.8l2.8,2.8c0.6,0.6,1.5,0.6,2.1,0c0.6-0.6,0.6-1.5,0-2.1L17,19.6z"/>
</g>
</svg>
