<?xml version="1.0" encoding="utf-8"?>
<!-- Generator: Adobe Illustrator 21.1.0, SVG Export Plug-In . SVG Version: 6.00 Build 0)  -->
<svg version="1.1" id="Layer_1" xmlns="http://www.w3.org/2000/svg" xmlns:xlink="http://www.w3.org/1999/xlink" x="0px" y="0px"
	 viewBox="0 0 30 30" style="enable-background:new 0 0 30 30;" xml:space="preserve">
<style type="text/css">
	.st0{fill:#556C9B;}
	.st1{fill:#20589B;}
	.st2{fill:#47A1D7;}
	.st3{fill:#DA2805;}
	.st4{fill:#864D2D;}
	.st5{fill:#3E87C5;}
	.st6{fill:#E43934;}
	.st7{fill:#2493CD;}
	.st8{fill:#DD2221;}
	.st9{fill:#E85750;}
	.st10{fill:#13B6D7;}
	.st11{fill:#366298;}
	.st12{fill:#F1921F;}
	.st13{fill:#2D5BA3;}
	.st14{fill:#211D21;}
	.st15{fill:#E9594A;}
	.st16{fill:#7C509C;}
	.st17{fill:#35A843;}
	.st18{fill:#1EA0D3;}
	.st19{fill:#3BBDE2;}
	.st20{fill:#38A2C3;}
	.st21{fill:#29AC86;}
	.st22{fill:#E64988;}
	.st23{fill:#2E67AF;}
	.st24{fill:#5E9343;}
	.st25{fill:#EA631B;}
	.st26{fill:#E75599;}
	.st27{fill:#2B4556;}
	.st28{fill:#FFFFFF;}
	.st29{fill-rule:evenodd;clip-rule:evenodd;fill:#FFFFFF;}
</style>
<rect class="st6" width="30" height="30"/>
<path id="pinterest_2_" class="st28" d="M15.5,4.8c-5.6,0-8.4,4-8.4,7.4c0,2,0.8,3.8,2.4,4.5c0.3,0.1,0.5,0,0.6-0.3
	c0.1-0.2,0.2-0.7,0.2-0.9c0.1-0.3,0-0.4-0.2-0.7c-0.5-0.6-0.8-1.3-0.8-2.3c0-3,2.2-5.6,5.8-5.6c3.2,0,4.9,1.9,4.9,4.5
	c0,3.4-1.5,6.3-3.7,6.3c-1.2,0-2.2-1-1.9-2.3c0.4-1.5,1-3.1,1-4.2c0-1-0.5-1.8-1.6-1.8c-1.3,0-2.3,1.3-2.3,3.1
	c0,1.1,0.4,1.9,0.4,1.9s-1.3,5.5-1.5,6.4c-0.5,1.9-0.1,4.2,0,4.5c0,0.1,0.2,0.2,0.3,0.1c0.1-0.2,1.6-2,2.1-3.9
	c0.1-0.5,0.8-3.2,0.8-3.2c0.4,0.8,1.6,1.5,2.9,1.5c3.8,0,6.4-3.5,6.4-8.1C22.9,8,20,4.8,15.5,4.8z"/>
</svg>
