<?xml version="1.0" encoding="utf-8"?>
<!-- Generator: Adobe Illustrator 21.1.0, SVG Export Plug-In . SVG Version: 6.00 Build 0)  -->
<svg version="1.1" id="Layer_1" xmlns="http://www.w3.org/2000/svg" xmlns:xlink="http://www.w3.org/1999/xlink" x="0px" y="0px"
	 viewBox="0 0 30 30" style="enable-background:new 0 0 30 30;" xml:space="preserve">
<style type="text/css">
	.st0{fill:#556C9B;}
	.st1{fill:#20589B;}
	.st2{fill:#47A1D7;}
	.st3{fill:#DA2805;}
	.st4{fill:#864D2D;}
	.st5{fill:#3E87C5;}
	.st6{fill:#E43934;}
	.st7{fill:#2493CD;}
	.st8{fill:#DD2221;}
	.st9{fill:#E85750;}
	.st10{fill:#13B6D7;}
	.st11{fill:#366298;}
	.st12{fill:#F1921F;}
	.st13{fill:#2D5BA3;}
	.st14{fill:#211D21;}
	.st15{fill:#E9594A;}
	.st16{fill:#7C509C;}
	.st17{fill:#35A843;}
	.st18{fill:#1EA0D3;}
	.st19{fill:#3BBDE2;}
	.st20{fill:#38A2C3;}
	.st21{fill:#29AC86;}
	.st22{fill:#E64988;}
	.st23{fill:#2E67AF;}
	.st24{fill:#5E9343;}
	.st25{fill:#EA631B;}
	.st26{fill:#E75599;}
	.st27{fill:#2B4556;}
	.st28{fill:#FFFFFF;}
	.st29{fill-rule:evenodd;clip-rule:evenodd;fill:#FFFFFF;}
</style>
<rect class="st2" width="30" height="30"/>
<path id="twitter_2_" class="st28" d="M25.3,8.8c-0.7,0.3-1.5,0.5-2.3,0.6c0.8-0.5,1.5-1.3,1.8-2.2c-0.8,0.5-1.6,0.8-2.6,1
	c-0.7-0.8-1.8-1.3-2.9-1.3c-2.2,0-4,1.8-4,4c0,0.3,0,0.6,0.1,0.9c-3.3-0.2-6.3-1.8-8.3-4.2C6.7,8.3,6.5,9,6.5,9.7
	c0,1.4,0.7,2.6,1.8,3.4c-0.7,0-1.3-0.2-1.8-0.5c0,0,0,0,0,0.1c0,2,1.4,3.6,3.2,4c-0.3,0.1-0.7,0.1-1.1,0.1c-0.3,0-0.5,0-0.8-0.1
	c0.5,1.6,2,2.8,3.8,2.8c-1.4,1.1-3.1,1.7-5,1.7c-0.3,0-0.6,0-1-0.1c1.8,1.1,3.9,1.8,6.2,1.8c7.4,0,11.5-6.1,11.5-11.5
	c0-0.2,0-0.3,0-0.5C24.1,10.4,24.8,9.6,25.3,8.8z"/>
</svg>
