<?xml version="1.0" encoding="utf-8"?>
<!-- Generator: Adobe Illustrator 21.1.0, SVG Export Plug-In . SVG Version: 6.00 Build 0)  -->
<svg version="1.1" id="Layer_1" xmlns="http://www.w3.org/2000/svg" xmlns:xlink="http://www.w3.org/1999/xlink" x="0px" y="0px"
	 viewBox="0 0 30 30" style="enable-background:new 0 0 30 30;" xml:space="preserve">
<style type="text/css">
	.st0{fill:#556C9B;}
	.st1{fill:#20589B;}
	.st2{fill:#47A1D7;}
	.st3{fill:#DA2805;}
	.st4{fill:#864D2D;}
	.st5{fill:#3E87C5;}
	.st6{fill:#E43934;}
	.st7{fill:#2493CD;}
	.st8{fill:#DD2221;}
	.st9{fill:#E85750;}
	.st10{fill:#13B6D7;}
	.st11{fill:#366298;}
	.st12{fill:#F1921F;}
	.st13{fill:#2D5BA3;}
	.st14{fill:#211D21;}
	.st15{fill:#E9594A;}
	.st16{fill:#7C509C;}
	.st17{fill:#35A843;}
	.st18{fill:#1EA0D3;}
	.st19{fill:#3BBDE2;}
	.st20{fill:#38A2C3;}
	.st21{fill:#29AC86;}
	.st22{fill:#E64988;}
	.st23{fill:#2E67AF;}
	.st24{fill:#5E9343;}
	.st25{fill:#EA631B;}
	.st26{fill:#E75599;}
	.st27{fill:#2B4556;}
	.st28{fill:#FFFFFF;}
	.st29{fill-rule:evenodd;clip-rule:evenodd;fill:#FFFFFF;}
</style>
<rect x="0" class="st16" width="30" height="30"/>
<path id="viber_2_" class="st28" d="M21.4,7.8c-0.7-0.6-1.5-0.9-2.4-1.2c-2.2-0.6-4.4-0.7-6.6-0.4c-1.1,0.2-2.2,0.5-3.2,1
	c-1.2,0.7-2,1.6-2.4,2.9c-0.3,0.9-0.4,1.9-0.4,2.9c-0.1,1.4,0,2.9,0.3,4.3c0.4,1.6,1.4,2.8,2.9,3.5c0.2,0.1,0.3,0.2,0.5,0.2
	c0.2,0.1,0.2,0.2,0.2,0.3c0,1.1,0,2.2,0,3.4c0.4-0.4,0.7-0.7,0.9-0.9c0.6-0.7,1.2-1.3,1.9-2c0.3-0.3,0.2-0.3,0.7-0.3
	c0.6,0,1.6,0,2.2,0c1.1-0.1,2.3-0.2,3.4-0.6c1.4-0.4,2.5-1.2,3.1-2.6c0.2-0.4,0.3-0.8,0.4-1.1c0.5-2.3,0.5-4.5,0-6.8
	C22.7,9.5,22.3,8.5,21.4,7.8z M14.5,9.2c0-0.2,0.1-0.3,0.3-0.3c1.7,0.1,3.1,0.6,4.1,2c0.6,0.8,0.9,1.9,0.9,2.9c0,0.1,0,0.3,0,0.4
	c0,0.2-0.1,0.3-0.3,0.3c-0.2,0-0.3-0.1-0.3-0.3c0-0.7-0.2-1.5-0.5-2.1c-0.5-1.3-1.6-2-2.9-2.4c-0.4-0.1-0.7-0.2-1.1-0.2
	C14.6,9.5,14.5,9.4,14.5,9.2z M16.2,11.1c-0.4-0.1-0.7-0.2-1.1-0.3c-0.2,0-0.3-0.1-0.3-0.3c0-0.2,0.2-0.3,0.4-0.3
	c1.2,0.1,2.2,0.6,2.8,1.6c0.3,0.5,0.5,1.2,0.5,1.7c0,0.4-0.1,0.5-0.3,0.5c-0.3,0-0.3-0.3-0.3-0.4c0-0.3-0.1-0.6-0.2-0.8
	C17.5,11.9,17,11.3,16.2,11.1z M17.3,13.1c0,0.1,0,0.2,0,0.2c0,0.1-0.1,0.2-0.3,0.2c-0.1,0-0.2-0.1-0.3-0.2c0-0.1,0-0.2-0.1-0.3
	c-0.1-0.5-0.4-0.8-0.9-0.9c-0.1,0-0.1,0-0.2,0c-0.2,0-0.3,0-0.4-0.3c0-0.2,0.1-0.3,0.4-0.3c0.2,0,0.4,0.1,0.6,0.2
	C16.9,12,17.2,12.4,17.3,13.1z M19.8,18.3c-0.3,0.8-0.9,1.3-1.7,1.5c-0.3,0.1-0.6,0-0.8-0.1c-3.7-1.6-6.3-4.2-7.9-7.9
	c-0.1-0.3-0.2-0.6-0.2-0.8c0-1,0.8-1.9,1.8-1.9c0.3,0,0.5,0.1,0.7,0.2c0.7,0.6,1.2,1.3,1.6,2.1c0.2,0.4,0.1,0.7-0.3,1.1
	c-0.1,0-0.1,0.1-0.2,0.1c-0.5,0.4-0.6,0.7-0.4,1.3c0.4,0.9,1,1.7,1.9,2.2c0.3,0.2,0.7,0.4,1,0.5c0.3,0.1,0.6,0,0.8-0.3
	c0,0,0-0.1,0.1-0.1c0.5-0.7,1-0.8,1.7-0.3c0.6,0.4,1.1,0.8,1.7,1.2C19.9,17.5,20,17.8,19.8,18.3z"/>
</svg>
