<?xml version="1.0" encoding="utf-8"?>
<!-- Generator: Adobe Illustrator 21.1.0, SVG Export Plug-In . SVG Version: 6.00 Build 0)  -->
<svg version="1.1" id="Layer_1" xmlns="http://www.w3.org/2000/svg" xmlns:xlink="http://www.w3.org/1999/xlink" x="0px" y="0px"
	 viewBox="0 0 30 30" style="enable-background:new 0 0 30 30;" xml:space="preserve">
<style type="text/css">
	.st0{fill:#556C9B;}
	.st1{fill:#20589B;}
	.st2{fill:#47A1D7;}
	.st3{fill:#DA2805;}
	.st4{fill:#864D2D;}
	.st5{fill:#3E87C5;}
	.st6{fill:#E43934;}
	.st7{fill:#2493CD;}
	.st8{fill:#DD2221;}
	.st9{fill:#E85750;}
	.st10{fill:#13B6D7;}
	.st11{fill:#366298;}
	.st12{fill:#F1921F;}
	.st13{fill:#2D5BA3;}
	.st14{fill:#211D21;}
	.st15{fill:#E9594A;}
	.st16{fill:#7C509C;}
	.st17{fill:#35A843;}
	.st18{fill:#1EA0D3;}
	.st19{fill:#3BBDE2;}
	.st20{fill:#38A2C3;}
	.st21{fill:#29AC86;}
	.st22{fill:#E64988;}
	.st23{fill:#2E67AF;}
	.st24{fill:#5E9343;}
	.st25{fill:#EA631B;}
	.st26{fill:#E75599;}
	.st27{fill:#2B4556;}
	.st28{fill:#FFFFFF;}
	.st29{fill-rule:evenodd;clip-rule:evenodd;fill:#FFFFFF;}
</style>
<rect y="0.1" class="st0" width="30" height="30"/>
<path id="vk_x5F_alt_2_" class="st29" d="M14.8,21.4h1.3c0,0,0.4,0,0.6-0.3c0.2-0.2,0.2-0.6,0.2-0.6s0-1.8,0.8-2
	c0.8-0.3,1.9,1.7,3,2.5c0.8,0.6,1.5,0.4,1.5,0.4l2.9,0c0,0,1.5-0.1,0.8-1.3c-0.1-0.1-0.4-0.9-2.2-2.5c-1.8-1.7-1.6-1.4,0.6-4.4
	c1.4-1.8,1.9-2.9,1.7-3.4c-0.2-0.5-1.2-0.3-1.2-0.3l-3.3,0c0,0-0.2,0-0.4,0.1c-0.2,0.1-0.3,0.4-0.3,0.4s-0.5,1.4-1.2,2.6
	c-1.5,2.5-2.1,2.6-2.3,2.5c-0.6-0.4-0.4-1.5-0.4-2.2c0-2.4,0.4-3.4-0.7-3.7c-0.4-0.1-0.6-0.1-1.6-0.2c-1.2,0-2.2,0-2.8,0.3
	c-0.4,0.2-0.7,0.6-0.5,0.6c0.2,0,0.7,0.1,1,0.5c0.3,0.5,0.3,1.5,0.3,1.5s0.2,2.9-0.5,3.2c-0.4,0.2-1.1-0.3-2.4-2.5
	c-0.7-1.2-1.2-2.5-1.2-2.5S8.5,9.7,8.3,9.6C8.1,9.4,7.8,9.4,7.8,9.4l-3.2,0c0,0-0.5,0-0.6,0.2c-0.2,0.2,0,0.6,0,0.6s2.5,5.8,5.3,8.7
	C11.9,21.5,14.8,21.4,14.8,21.4L14.8,21.4L14.8,21.4z"/>
</svg>
